<svg width="448" height="131" viewBox="0 0 448 131" fill="none" xmlns="http://www.w3.org/2000/svg">
<g filter="url(#filter0_f_185_122)">
<path d="M59.7344 45.5781C56.9531 45.5781 54.4844 46.125 52.3281 47.2188C50.2031 48.2812 48.4062 49.8281 46.9375 51.8594C45.5 53.8906 44.4062 56.3438 43.6562 59.2188C42.9062 62.0938 42.5312 65.3281 42.5312 68.9219C42.5312 73.7656 43.125 77.9062 44.3125 81.3438C45.5312 84.75 47.4062 87.3594 49.9375 89.1719C52.4688 90.9531 55.7344 91.8438 59.7344 91.8438C62.5156 91.8438 65.2969 91.5312 68.0781 90.9062C70.8906 90.2812 73.9375 89.3906 77.2188 88.2344V100.422C74.1875 101.672 71.2031 102.562 68.2656 103.094C65.3281 103.656 62.0312 103.938 58.375 103.938C51.3125 103.938 45.5 102.484 40.9375 99.5781C36.4062 96.6406 33.0469 92.5469 30.8594 87.2969C28.6719 82.0156 27.5781 75.8594 27.5781 68.8281C27.5781 63.6406 28.2812 58.8906 29.6875 54.5781C31.0938 50.2656 33.1562 46.5312 35.875 43.375C38.5938 40.2188 41.9531 37.7812 45.9531 36.0625C49.9531 34.3438 54.5469 33.4844 59.7344 33.4844C63.1406 33.4844 66.5469 33.9219 69.9531 34.7969C73.3906 35.6406 76.6719 36.8125 79.7969 38.3125L75.1094 50.125C72.5469 48.9062 69.9688 47.8438 67.375 46.9375C64.7812 46.0312 62.2344 45.5781 59.7344 45.5781ZM114.25 50.5938V70.8438H124.328C129.703 70.8438 134.141 71.4062 137.641 72.5312C141.141 73.6562 143.734 75.375 145.422 77.6875C147.141 79.9688 148 82.8438 148 86.3125C148 89.6875 147.219 92.625 145.656 95.125C144.094 97.625 141.609 99.5625 138.203 100.938C134.828 102.312 130.391 103 124.891 103H99.9062V61.3281H83.2188V50.5938H114.25ZM124 80.7344H114.25V93.1094H124.188C126.969 93.1094 129.25 92.6094 131.031 91.6094C132.812 90.5781 133.703 88.875 133.703 86.5C133.703 84.4688 132.891 83 131.266 82.0938C129.672 81.1875 127.25 80.7344 124 80.7344ZM180.484 49.6094C185.328 49.6094 189.5 50.5469 193 52.4219C196.5 54.2656 199.203 56.9531 201.109 60.4844C203.016 64.0156 203.969 68.3281 203.969 73.4219V80.3594H170.172C170.328 84.3906 171.531 87.5625 173.781 89.875C176.062 92.1562 179.219 93.2969 183.25 93.2969C186.594 93.2969 189.656 92.9531 192.438 92.2656C195.219 91.5781 198.078 90.5469 201.016 89.1719V100.234C198.422 101.516 195.703 102.453 192.859 103.047C190.047 103.641 186.625 103.938 182.594 103.938C177.344 103.938 172.688 102.969 168.625 101.031C164.594 99.0938 161.422 96.1406 159.109 92.1719C156.828 88.2031 155.688 83.2031 155.688 77.1719C155.688 71.0469 156.719 65.9531 158.781 61.8906C160.875 57.7969 163.781 54.7344 167.5 52.7031C171.219 50.6406 175.547 49.6094 180.484 49.6094ZM180.578 59.7812C177.797 59.7812 175.484 60.6719 173.641 62.4531C171.828 64.2344 170.781 67.0312 170.5 70.8438H190.562C190.531 68.7188 190.141 66.8281 189.391 65.1719C188.672 63.5156 187.578 62.2031 186.109 61.2344C184.672 60.2656 182.828 59.7812 180.578 59.7812ZM281.641 50.5938V103H268.281V77.2656C268.281 74.7344 268.328 72.25 268.422 69.8125C268.516 67.375 268.656 65.125 268.844 63.0625H268.562L254.078 103H243.344L228.625 62.9688H228.25C228.5 65.0625 228.672 67.3125 228.766 69.7188C228.859 72.125 228.906 74.7656 228.906 77.6406V103H215.594V50.5938H235.844L248.875 86.125L262.141 50.5938H281.641ZM331.047 50.5938H346.797L326.031 75.7188L348.625 103H332.406L310.984 76.4219V103H296.688V50.5938H310.984V76.0469L331.047 50.5938ZM369.953 50.5938V71.3125C369.953 72.375 369.906 73.7188 369.812 75.3438C369.75 76.9375 369.656 78.5625 369.531 80.2188C369.406 81.875 369.281 83.3594 369.156 84.6719C369.031 85.9844 368.938 86.875 368.875 87.3438L393.062 50.5938H410.266V103H396.438V82.0938C396.438 80.375 396.5 78.4844 396.625 76.4219C396.75 74.3281 396.891 72.3594 397.047 70.5156C397.203 68.6719 397.312 67.2812 397.375 66.3438L373.281 103H356.125V50.5938H369.953Z" fill="#D74A8F"/>
</g>
<path d="M64.112 92.128C49.424 92.128 37.52 81.376 37.52 68.128C37.52 54.976 49.424 44.224 64.112 44.224C70.448 44.224 76.304 46.24 80.816 49.6H95.024C88.304 40.768 76.976 34.912 64.112 34.912C43.568 34.912 26.96 49.792 26.96 68.128C26.96 86.56 43.568 101.44 64.112 101.44C76.976 101.44 88.304 95.584 95.024 86.752H80.816C76.304 90.112 70.448 92.128 64.112 92.128ZM130.998 71.104V71.008H119.094V52.192H101.814V61.024H108.438V100.096H130.998C143.478 100.096 152.31 93.568 152.31 85.6C152.31 77.536 143.478 71.104 130.998 71.104ZM130.998 91.264H119.094V79.84H130.998V79.936C137.91 79.936 141.654 82.432 141.654 85.6C141.654 88.672 137.91 91.264 130.998 91.264ZM217.218 76.096C217.218 74.752 217.122 73.408 216.835 72.16C214.722 60.064 202.914 50.848 188.61 50.848C172.866 50.848 160.098 62.176 160.098 76.096C160.098 90.112 172.866 101.344 188.61 101.344C200.13 101.344 210.018 95.392 214.53 86.752H202.05C198.69 90.016 193.986 92.128 188.61 92.128C180.258 92.128 173.25 87.04 171.234 80.128H216.835C217.122 78.784 217.218 77.44 217.218 76.096ZM174.786 72.16C173.538 72.16 172.482 72.736 171.81 73.696L169.986 76.48L168.738 75.712L170.562 73.024C171.042 72.352 171.426 71.584 171.714 70.816C174.114 64.672 180.834 60.16 188.61 60.16C196.962 60.16 204.066 65.248 205.986 72.16H174.786ZM275.413 52.192L261.109 78.016C260.245 79.552 259.765 81.376 259.765 83.2V85.408H258.421V83.68C258.421 81.856 257.941 80.128 257.077 78.496L242.485 52.192H227.221V100.096H237.781V67.456C237.781 66.112 237.589 64.768 237.013 63.52L235.861 60.448L237.109 59.872L239.797 66.592L253.141 90.784H264.757L278.677 65.536C278.869 65.152 279.061 64.768 279.253 64.288L281.077 59.872L282.325 60.448L281.077 63.52C280.597 64.768 280.405 66.112 280.405 67.456V100.096H290.965V52.192H275.413ZM323.576 71.392L346.328 52.192H331.832L315.992 65.536C314.84 66.592 313.784 67.936 313.208 69.376L311.192 73.792L309.944 73.216L312.344 67.84C312.92 66.4 313.208 64.96 313.208 63.52V52.192H302.648V100.096H313.208V80.128L316.472 77.44L337.208 100.096H349.88L323.576 71.392ZM398.228 52.192L371.54 83.776C370.676 84.736 370.004 85.984 369.524 87.232L368.276 90.976L366.932 90.496L368.468 86.176C368.756 85.024 368.948 83.968 368.948 82.816V52.192H358.388V100.096H368.948L395.636 68.512C396.596 67.456 397.172 66.304 397.652 64.96L398.9 61.312L400.244 61.696L398.804 66.112C398.42 67.168 398.228 68.32 398.228 69.472V100.096H408.884V52.192H398.228Z" fill="white"/>
<defs>
<filter id="filter0_f_185_122" x="0.578125" y="6.48438" width="436.688" height="124.453" filterUnits="userSpaceOnUse" color-interpolation-filters="sRGB">
<feFlood flood-opacity="0" result="BackgroundImageFix"/>
<feBlend mode="normal" in="SourceGraphic" in2="BackgroundImageFix" result="shape"/>
<feGaussianBlur stdDeviation="13.5" result="effect1_foregroundBlur_185_122"/>
</filter>
</defs>
</svg>
