<svg width="445" height="149" viewBox="0 0 445 149" fill="none" xmlns="http://www.w3.org/2000/svg">
<g filter="url(#filter0_f_194_291)">
<path d="M27.625 34.4688H48.9531C58.0781 34.4688 64.9844 35.75 69.6719 38.3125C74.3594 40.875 76.7031 45.375 76.7031 51.8125C76.7031 54.4062 76.2812 56.75 75.4375 58.8438C74.625 60.9375 73.4375 62.6562 71.875 64C70.3125 65.3438 68.4062 66.2188 66.1562 66.625V67.0938C68.4375 67.5625 70.5 68.375 72.3438 69.5312C74.1875 70.6562 75.6562 72.3125 76.75 74.5C77.875 76.6562 78.4375 79.5312 78.4375 83.125C78.4375 87.2812 77.4219 90.8438 75.3906 93.8125C73.3594 96.7812 70.4531 99.0625 66.6719 100.656C62.9219 102.219 58.4531 103 53.2656 103H27.625V34.4688ZM42.1562 61.6094H50.5938C54.8125 61.6094 57.7344 60.9531 59.3594 59.6406C60.9844 58.2969 61.7969 56.3281 61.7969 53.7344C61.7969 51.1094 60.8281 49.2344 58.8906 48.1094C56.9844 46.9531 53.9531 46.375 49.7969 46.375H42.1562V61.6094ZM42.1562 73.1406V91H51.625C56 91 59.0469 90.1562 60.7656 88.4688C62.4844 86.7812 63.3438 84.5156 63.3438 81.6719C63.3438 79.9844 62.9688 78.5 62.2188 77.2188C61.4688 75.9375 60.2031 74.9375 58.4219 74.2188C56.6719 73.5 54.25 73.1406 51.1562 73.1406H42.1562ZM104.828 50.5938V71.3125C104.828 72.375 104.781 73.7188 104.688 75.3438C104.625 76.9375 104.531 78.5625 104.406 80.2188C104.281 81.875 104.156 83.3594 104.031 84.6719C103.906 85.9844 103.812 86.875 103.75 87.3438L127.938 50.5938H145.141V103H131.312V82.0938C131.312 80.375 131.375 78.4844 131.5 76.4219C131.625 74.3281 131.766 72.3594 131.922 70.5156C132.078 68.6719 132.188 67.2812 132.25 66.3438L108.156 103H91V50.5938H104.828ZM207.297 50.5938V92.5469H214.984V121.797H202.141V103H166.891V121.797H154.047V92.5469H158.453C160.766 89.0156 162.703 84.9844 164.266 80.4531C165.859 75.9219 167.141 71.125 168.109 66.0625C169.109 60.9688 169.828 55.8125 170.266 50.5938H207.297ZM193 61.3281H182.266C181.766 65.2031 181.125 68.9531 180.344 72.5781C179.594 76.1719 178.656 79.6406 177.531 82.9844C176.406 86.2969 175.031 89.4844 173.406 92.5469H193V61.3281ZM245.547 49.6094C250.391 49.6094 254.562 50.5469 258.062 52.4219C261.562 54.2656 264.266 56.9531 266.172 60.4844C268.078 64.0156 269.031 68.3281 269.031 73.4219V80.3594H235.234C235.391 84.3906 236.594 87.5625 238.844 89.875C241.125 92.1562 244.281 93.2969 248.312 93.2969C251.656 93.2969 254.719 92.9531 257.5 92.2656C260.281 91.5781 263.141 90.5469 266.078 89.1719V100.234C263.484 101.516 260.766 102.453 257.922 103.047C255.109 103.641 251.688 103.938 247.656 103.938C242.406 103.938 237.75 102.969 233.688 101.031C229.656 99.0938 226.484 96.1406 224.172 92.1719C221.891 88.2031 220.75 83.2031 220.75 77.1719C220.75 71.0469 221.781 65.9531 223.844 61.8906C225.938 57.7969 228.844 54.7344 232.562 52.7031C236.281 50.6406 240.609 49.6094 245.547 49.6094ZM245.641 59.7812C242.859 59.7812 240.547 60.6719 238.703 62.4531C236.891 64.2344 235.844 67.0312 235.562 70.8438H255.625C255.594 68.7188 255.203 66.8281 254.453 65.1719C253.734 63.5156 252.641 62.2031 251.172 61.2344C249.734 60.2656 247.891 59.7812 245.641 59.7812ZM328.281 76.7031C328.281 81.0781 327.688 84.9531 326.5 88.3281C325.344 91.7031 323.641 94.5625 321.391 96.9062C319.172 99.2188 316.484 100.969 313.328 102.156C310.203 103.344 306.672 103.938 302.734 103.938C299.047 103.938 295.656 103.344 292.562 102.156C289.5 100.969 286.828 99.2188 284.547 96.9062C282.297 94.5625 280.547 91.7031 279.297 88.3281C278.078 84.9531 277.469 81.0781 277.469 76.7031C277.469 70.8906 278.5 65.9688 280.562 61.9375C282.625 57.9062 285.562 54.8438 289.375 52.75C293.188 50.6562 297.734 49.6094 303.016 49.6094C307.922 49.6094 312.266 50.6562 316.047 52.75C319.859 54.8438 322.844 57.9062 325 61.9375C327.188 65.9688 328.281 70.8906 328.281 76.7031ZM292.047 76.7031C292.047 80.1406 292.422 83.0312 293.172 85.375C293.922 87.7188 295.094 89.4844 296.688 90.6719C298.281 91.8594 300.359 92.4531 302.922 92.4531C305.453 92.4531 307.5 91.8594 309.062 90.6719C310.656 89.4844 311.812 87.7188 312.531 85.375C313.281 83.0312 313.656 80.1406 313.656 76.7031C313.656 73.2344 313.281 70.3594 312.531 68.0781C311.812 65.7656 310.656 64.0312 309.062 62.875C307.469 61.7188 305.391 61.1406 302.828 61.1406C299.047 61.1406 296.297 62.4375 294.578 65.0312C292.891 67.625 292.047 71.5156 292.047 76.7031Z" fill="#D74A8F"/>
</g>
<path d="M72.92 59.584C72.248 59.104 71.384 59.008 70.52 59.104L67.832 59.584L67.64 58.144L69.368 57.856C70.616 57.664 71.576 56.896 72.056 55.744C72.728 54.208 73.016 52.576 73.016 50.848C73.016 42.784 65.336 36.256 55.736 36.256H26.552V100.096H37.112V65.536H61.112C67.64 65.536 73.016 71.488 73.016 78.784C73.016 86.176 67.64 92.128 61.112 92.128C54.488 92.128 49.112 86.176 49.112 78.784H38.456C38.456 91.648 49.208 102.016 62.168 101.344C73.784 100.864 83.192 91.456 83.672 79.84C84.056 71.296 79.64 63.712 72.92 59.584ZM55.736 56.224H37.112V45.568H55.736C59.384 45.568 62.36 47.968 62.36 50.848C62.36 53.824 59.384 56.224 55.736 56.224ZM133.08 52.192L106.392 83.776C105.528 84.736 104.856 85.984 104.376 87.232L103.128 90.976L101.784 90.496L103.32 86.176C103.608 85.024 103.8 83.968 103.8 82.816V52.192H93.2405V100.096H103.8L130.488 68.512C131.449 67.456 132.024 66.304 132.504 64.96L133.752 61.312L135.096 61.696L133.657 66.112C133.273 67.168 133.08 68.32 133.08 69.472V100.096H143.736V52.192H133.08ZM204.697 90.688V52.096H162.073L160.825 88C160.825 90.208 158.425 92.032 155.449 92.032H152.857L154.105 106.624H163.417V102.304C163.417 101.632 163.225 100.96 162.841 100.384L160.153 96.352L161.401 95.584L163.321 98.464C163.897 99.424 164.953 100 166.105 100H199.321C200.473 100 201.529 99.424 202.201 98.464L204.121 95.584L205.273 96.352L202.585 100.384C202.201 100.96 202.009 101.632 202.009 102.304V106.624H211.321L212.665 90.688H204.697ZM194.041 90.688H171.097C171.289 89.824 171.385 88.864 171.385 88L172.729 60.064H194.041V90.688ZM276.427 76.096C276.427 74.752 276.331 73.408 276.043 72.16C273.931 60.064 262.123 50.848 247.819 50.848C232.075 50.848 219.307 62.176 219.307 76.096C219.307 90.112 232.075 101.344 247.819 101.344C259.339 101.344 269.227 95.392 273.739 86.752H261.259C257.899 90.016 253.195 92.128 247.819 92.128C239.467 92.128 232.459 87.04 230.443 80.128H276.043C276.331 78.784 276.427 77.44 276.427 76.096ZM233.995 72.16C232.747 72.16 231.691 72.736 231.019 73.696L229.195 76.48L227.947 75.712L229.771 73.024C230.251 72.352 230.635 71.584 230.923 70.816C233.323 64.672 240.043 60.16 247.819 60.16C256.171 60.16 263.275 65.248 265.195 72.16H233.995ZM313.309 50.848C297.565 50.848 284.797 62.176 284.797 76.096C284.797 90.112 297.565 101.344 313.309 101.344C329.149 101.344 341.917 90.112 341.917 76.096C341.917 62.176 329.149 50.848 313.309 50.848ZM313.309 92.128C303.421 92.128 295.357 84.928 295.357 76.096C295.357 67.264 303.421 60.16 313.309 60.16C323.293 60.16 331.261 67.264 331.261 76.096C331.261 84.928 323.293 92.128 313.309 92.128Z" fill="white"/>
<defs>
<filter id="filter0_f_194_291" x="0.625" y="7.46875" width="354.656" height="141.328" filterUnits="userSpaceOnUse" color-interpolation-filters="sRGB">
<feFlood flood-opacity="0" result="BackgroundImageFix"/>
<feBlend mode="normal" in="SourceGraphic" in2="BackgroundImageFix" result="shape"/>
<feGaussianBlur stdDeviation="13.5" result="effect1_foregroundBlur_194_291"/>
</filter>
</defs>
</svg>
