<svg width="445" height="154" viewBox="0 0 445 154" fill="none" xmlns="http://www.w3.org/2000/svg">
<g filter="url(#filter0_f_189_253)">
<path d="M27.625 34.4688H48.9531C58.0781 34.4688 64.9844 35.75 69.6719 38.3125C74.3594 40.875 76.7031 45.375 76.7031 51.8125C76.7031 54.4062 76.2812 56.75 75.4375 58.8438C74.625 60.9375 73.4375 62.6562 71.875 64C70.3125 65.3438 68.4062 66.2188 66.1562 66.625V67.0938C68.4375 67.5625 70.5 68.375 72.3438 69.5312C74.1875 70.6562 75.6562 72.3125 76.75 74.5C77.875 76.6562 78.4375 79.5312 78.4375 83.125C78.4375 87.2812 77.4219 90.8438 75.3906 93.8125C73.3594 96.7812 70.4531 99.0625 66.6719 100.656C62.9219 102.219 58.4531 103 53.2656 103H27.625V34.4688ZM42.1562 61.6094H50.5938C54.8125 61.6094 57.7344 60.9531 59.3594 59.6406C60.9844 58.2969 61.7969 56.3281 61.7969 53.7344C61.7969 51.1094 60.8281 49.2344 58.8906 48.1094C56.9844 46.9531 53.9531 46.375 49.7969 46.375H42.1562V61.6094ZM42.1562 73.1406V91H51.625C56 91 59.0469 90.1562 60.7656 88.4688C62.4844 86.7812 63.3438 84.5156 63.3438 81.6719C63.3438 79.9844 62.9688 78.5 62.2188 77.2188C61.4688 75.9375 60.2031 74.9375 58.4219 74.2188C56.6719 73.5 54.25 73.1406 51.1562 73.1406H42.1562ZM104.828 50.5938V71.3125C104.828 72.375 104.781 73.7188 104.688 75.3438C104.625 76.9375 104.531 78.5625 104.406 80.2188C104.281 81.875 104.156 83.3594 104.031 84.6719C103.906 85.9844 103.812 86.875 103.75 87.3438L127.938 50.5938H145.141V103H131.312V82.0938C131.312 80.375 131.375 78.4844 131.5 76.4219C131.625 74.3281 131.766 72.3594 131.922 70.5156C132.078 68.6719 132.188 67.2812 132.25 66.3438L108.156 103H91V50.5938H104.828ZM179.266 49.6094C183.047 49.6094 186.578 50.1094 189.859 51.1094C193.141 52.0781 195.797 53.5938 197.828 55.6562C199.859 57.6875 200.875 60.3125 200.875 63.5312C200.875 66.6875 199.922 69.2031 198.016 71.0781C196.109 72.9219 193.578 74.25 190.422 75.0625V75.5312C192.641 76.0625 194.641 76.7812 196.422 77.6875C198.234 78.5938 199.672 79.8438 200.734 81.4375C201.797 83.0312 202.328 85.125 202.328 87.7188C202.328 90.625 201.406 93.3125 199.562 95.7812C197.719 98.2188 194.891 100.188 191.078 101.688C187.297 103.188 182.438 103.938 176.5 103.938C173.688 103.938 171.031 103.812 168.531 103.562C166.062 103.312 163.797 102.953 161.734 102.484C159.672 101.984 157.875 101.391 156.344 100.703V88.8906C158.5 89.8906 161.156 90.8125 164.312 91.6562C167.5 92.5 170.891 92.9219 174.484 92.9219C177.078 92.9219 179.422 92.7344 181.516 92.3594C183.641 91.9844 185.312 91.3594 186.531 90.4844C187.781 89.5781 188.406 88.375 188.406 86.875C188.406 85.4688 187.859 84.3125 186.766 83.4062C185.703 82.4688 184.062 81.7812 181.844 81.3438C179.656 80.875 176.875 80.6406 173.5 80.6406H167.969V70.75H173.219C177.969 70.75 181.641 70.3594 184.234 69.5781C186.828 68.7969 188.125 67.3594 188.125 65.2656C188.125 63.5781 187.297 62.3125 185.641 61.4688C183.984 60.625 181.25 60.2031 177.438 60.2031C174.969 60.2031 172.25 60.5 169.281 61.0938C166.312 61.6562 163.531 62.4688 160.938 63.5312L156.719 53.5469C159.75 52.3906 163.031 51.4531 166.562 50.7344C170.125 49.9844 174.359 49.6094 179.266 49.6094ZM206.031 50.5938H221.688L231.578 80.0781C231.891 81.0156 232.156 81.9688 232.375 82.9375C232.594 83.9062 232.781 84.9062 232.938 85.9375C233.094 86.9688 233.219 88.0469 233.312 89.1719H233.594C233.781 87.4844 234.031 85.9062 234.344 84.4375C234.688 82.9688 235.109 81.5156 235.609 80.0781L245.312 50.5938H260.641L238.469 109.703C237.125 113.328 235.375 116.344 233.219 118.75C231.062 121.188 228.578 123.016 225.766 124.234C222.984 125.453 219.922 126.062 216.578 126.062C214.953 126.062 213.547 125.969 212.359 125.781C211.172 125.625 210.156 125.453 209.312 125.266V113.922C209.969 114.078 210.797 114.219 211.797 114.344C212.797 114.469 213.844 114.531 214.938 114.531C216.938 114.531 218.656 114.109 220.094 113.266C221.531 112.422 222.734 111.281 223.703 109.844C224.672 108.438 225.438 106.891 226 105.203L226.844 102.625L206.031 50.5938ZM289.656 49.5156C296.688 49.5156 302.078 51.0469 305.828 54.1094C309.578 57.1719 311.453 61.8281 311.453 68.0781V103H301.469L298.703 95.875H298.328C296.828 97.75 295.297 99.2812 293.734 100.469C292.172 101.656 290.375 102.531 288.344 103.094C286.312 103.656 283.844 103.938 280.938 103.938C277.844 103.938 275.062 103.344 272.594 102.156C270.156 100.969 268.234 99.1562 266.828 96.7188C265.422 94.25 264.719 91.125 264.719 87.3438C264.719 81.7812 266.672 77.6875 270.578 75.0625C274.484 72.4062 280.344 70.9375 288.156 70.6562L297.25 70.375V68.0781C297.25 65.3281 296.531 63.3125 295.094 62.0312C293.656 60.75 291.656 60.1094 289.094 60.1094C286.562 60.1094 284.078 60.4688 281.641 61.1875C279.203 61.9062 276.766 62.8125 274.328 63.9062L269.594 54.25C272.375 52.7812 275.484 51.625 278.922 50.7812C282.391 49.9375 285.969 49.5156 289.656 49.5156ZM297.25 78.7188L291.719 78.9062C287.094 79.0312 283.875 79.8594 282.062 81.3906C280.281 82.9219 279.391 84.9375 279.391 87.4375C279.391 89.625 280.031 91.1875 281.312 92.125C282.594 93.0312 284.266 93.4844 286.328 93.4844C289.391 93.4844 291.969 92.5781 294.062 90.7656C296.188 88.9531 297.25 86.375 297.25 83.0312V78.7188ZM373.141 103H358.844V61.3281H345.672C345.016 69.0156 344.234 75.5625 343.328 80.9688C342.422 86.375 341.266 90.7812 339.859 94.1875C338.453 97.5625 336.703 100.031 334.609 101.594C332.516 103.156 329.938 103.938 326.875 103.938C325.188 103.938 323.672 103.812 322.328 103.562C321.016 103.312 319.812 102.938 318.719 102.438V91C319.406 91.2812 320.141 91.5156 320.922 91.7031C321.703 91.8594 322.5 91.9375 323.312 91.9375C324.219 91.9375 325.078 91.5781 325.891 90.8594C326.703 90.1406 327.469 88.9062 328.188 87.1562C328.906 85.375 329.578 82.9219 330.203 79.7969C330.859 76.6719 331.453 72.7188 331.984 67.9375C332.516 63.1562 333.016 57.375 333.484 50.5938H373.141V103Z" fill="#D74A8F"/>
</g>
<path d="M72.92 59.584C72.248 59.104 71.384 59.008 70.52 59.104L67.832 59.584L67.64 58.144L69.368 57.856C70.616 57.664 71.576 56.896 72.056 55.744C72.728 54.208 73.016 52.576 73.016 50.848C73.016 42.784 65.336 36.256 55.736 36.256H26.552V100.096H37.112V65.536H61.112C67.64 65.536 73.016 71.488 73.016 78.784C73.016 86.176 67.64 92.128 61.112 92.128C54.488 92.128 49.112 86.176 49.112 78.784H38.456C38.456 91.648 49.208 102.016 62.168 101.344C73.784 100.864 83.192 91.456 83.672 79.84C84.056 71.296 79.64 63.712 72.92 59.584ZM55.736 56.224H37.112V45.568H55.736C59.384 45.568 62.36 47.968 62.36 50.848C62.36 53.824 59.384 56.224 55.736 56.224ZM133.08 52.192L106.392 83.776C105.528 84.736 104.856 85.984 104.376 87.232L103.128 90.976L101.784 90.496L103.32 86.176C103.608 85.024 103.8 83.968 103.8 82.816V52.192H93.2405V100.096H103.8L130.488 68.512C131.449 67.456 132.024 66.304 132.504 64.96L133.752 61.312L135.096 61.696L133.657 66.112C133.273 67.168 133.08 68.32 133.08 69.472V100.096H143.736V52.192H133.08ZM198.745 79.744C197.113 77.344 194.137 76.192 191.257 76.672L190.393 76.864L190.201 75.424L192.313 75.04C194.137 74.752 195.769 73.888 196.921 72.448C198.649 70.336 199.609 68.032 199.609 65.44C199.609 57.376 189.529 50.848 177.049 50.848C165.913 50.848 156.697 56.032 154.777 62.848H166.681C168.697 61.216 172.633 60.16 177.049 60.16C183.673 60.16 188.953 62.56 188.953 65.44C188.953 68.224 184.345 70.432 178.393 70.816H171.673V80.128H178.393C185.113 80.416 190.297 83.008 190.297 86.08C190.297 89.44 184.345 92.128 177.049 92.128C171.193 92.128 166.297 90.4 164.473 88.096H153.337C154.777 95.584 164.857 101.344 177.049 101.344C190.201 101.344 200.953 94.528 200.953 86.08C200.953 83.776 200.185 81.664 198.745 79.744ZM255.187 52.096L237.907 86.752C237.139 88.288 236.755 89.92 236.755 91.552V93.28H235.315V91.552C235.315 89.92 234.931 88.288 234.259 86.752L216.979 52.096H206.611L230.899 100.864L225.331 111.904L233.683 116.032L265.555 52.096H255.187ZM315.699 52.192V52.864C315.699 54.304 316.083 55.84 316.659 57.184L319.059 62.56L317.715 63.136L315.891 58.912C314.739 56.416 312.819 54.496 310.323 53.44C306.579 51.808 302.259 50.848 297.747 50.848C282.003 50.848 269.235 62.176 269.235 76.096C269.235 90.112 279.315 101.344 291.795 101.344C304.275 101.344 314.355 91.264 314.355 78.784H303.795C303.795 86.08 298.419 92.128 291.795 92.128C285.171 92.128 279.795 84.928 279.795 76.096C279.795 67.36 287.859 60.16 297.747 60.16C307.731 60.16 315.699 67.36 315.699 76.096V100.096H326.355V52.192H315.699ZM341.404 52.192V88.096C341.404 90.304 339.004 92.128 336.124 92.128V101.344C344.86 101.344 352.06 95.392 352.06 88.096V60.16H374.62V100.096H385.276V52.192H341.404Z" fill="white"/>
<defs>
<filter id="filter0_f_189_253" x="0.625" y="7.46875" width="399.516" height="145.594" filterUnits="userSpaceOnUse" color-interpolation-filters="sRGB">
<feFlood flood-opacity="0" result="BackgroundImageFix"/>
<feBlend mode="normal" in="SourceGraphic" in2="BackgroundImageFix" result="shape"/>
<feGaussianBlur stdDeviation="13.5" result="effect1_foregroundBlur_189_253"/>
</filter>
</defs>
</svg>
