<svg width="55" height="54" viewBox="0 0 55 54" fill="none" xmlns="http://www.w3.org/2000/svg">
<path fill-rule="evenodd" clip-rule="evenodd" d="M52.9764 5.96097C53.3006 5.63712 53.5579 5.25257 53.7335 4.82929C53.9092 4.40601 53.9997 3.95227 54 3.494C54.0003 3.03572 53.9103 2.58188 53.7352 2.15838C53.5601 1.73488 53.3033 1.35002 52.9794 1.02577C52.6556 0.701524 52.271 0.444239 51.8478 0.268604C51.4245 0.0929696 50.9708 0.00242667 50.5125 0.002145C50.0542 0.00186333 49.6004 0.0918484 49.1769 0.266962C48.7534 0.442077 48.3685 0.698889 48.0443 1.02274L26.9996 22.0678L5.96087 1.02274C5.30603 0.36789 4.41788 -6.89996e-09 3.4918 0C2.56571 6.89996e-09 1.67756 0.36789 1.02272 1.02274C0.367884 1.67759 6.89985e-09 2.56576 0 3.49185C-6.89985e-09 4.41795 0.367884 5.30612 1.02272 5.96097L22.0675 27L1.02272 48.039C0.69848 48.3633 0.441276 48.7482 0.265797 49.1719C0.0903175 49.5955 0 50.0496 0 50.5081C0 50.9667 0.0903175 51.4208 0.265797 51.8444C0.441276 52.2681 0.69848 52.653 1.02272 52.9772C1.67756 53.6321 2.56571 54 3.4918 54C3.95035 54 4.4044 53.9097 4.82805 53.7342C5.25169 53.5587 5.63663 53.3015 5.96087 52.9772L26.9996 31.9322L48.0443 52.9772C48.6991 53.6313 49.587 53.9984 50.5125 53.9978C51.438 53.9973 52.3254 53.6291 52.9794 52.9742C53.6335 52.3194 54.0006 51.4315 54 50.506C53.9994 49.5805 53.6312 48.6931 52.9764 48.039L31.9316 27L52.9764 5.96097Z" fill="#E4DCDC"/>
</svg>
