<svg width="47" height="47" viewBox="0 0 47 47" fill="none" xmlns="http://www.w3.org/2000/svg">
<path d="M19.941 26.7635L31.1221 15.5824C31.4696 15.2349 31.9118 15.0612 32.4487 15.0612C32.9856 15.0612 33.4278 15.2349 33.7753 15.5824C34.1227 15.9298 34.2964 16.372 34.2964 16.9089C34.2964 17.4459 34.1227 17.8881 33.7753 18.2355L21.2676 30.7432C20.8886 31.1222 20.4464 31.3117 19.941 31.3117C19.4357 31.3117 18.9935 31.1222 18.6144 30.7432L13.6872 25.8159C13.3397 25.4685 13.166 25.0263 13.166 24.4894C13.166 23.9524 13.3397 23.5102 13.6872 23.1628C14.0346 22.8154 14.4768 22.6416 15.0137 22.6416C15.5507 22.6416 15.9929 22.8154 16.3403 23.1628L19.941 26.7635Z" fill="#F9F9F9"/>
</svg>
