<svg width="371" height="99" viewBox="0 0 371 99" fill="none" xmlns="http://www.w3.org/2000/svg">
<rect width="371" height="99" rx="49.5" fill="url(#paint0_linear_206_44)"/>
<path d="M94.8653 39L83.5853 49.35L91.3253 60H88.2053L80.7053 49.68L78.8753 60H76.0853L79.7753 39H82.5653L80.9153 48.45L91.3253 39H94.8653ZM99.3929 60.39C97.1729 60.39 95.3929 59.62 94.0529 58.08C92.7129 56.54 92.2529 54.59 92.6729 52.23C93.0929 49.91 94.1929 48.06 95.9729 46.68C97.7529 45.3 99.7329 44.61 101.913 44.61C104.053 44.61 105.773 45.38 107.073 46.92C108.373 48.46 108.823 50.39 108.423 52.71C108.023 55.07 106.953 56.94 105.213 58.32C103.473 59.7 101.533 60.39 99.3929 60.39ZM99.6029 57.84C101.063 57.84 102.393 57.36 103.593 56.4C104.813 55.44 105.563 54.12 105.843 52.44C106.123 50.82 105.823 49.54 104.943 48.6C104.083 47.64 102.933 47.16 101.493 47.16C100.073 47.18 98.7629 47.66 97.5629 48.6C96.3629 49.54 95.6029 50.84 95.2829 52.5C95.0029 54.18 95.2929 55.5 96.1529 56.46C97.0329 57.4 98.1829 57.86 99.6029 57.84ZM123.259 45H125.869L123.229 60H120.619L121.729 53.73H113.959L112.849 60H110.239L112.879 45H115.489L114.379 51.24H122.149L123.259 45ZM141.002 45L140.552 47.52H135.452L133.262 60H130.652L132.842 47.52H127.742L128.162 45H141.002ZM149.513 44.61C151.773 44.61 153.503 45.39 154.703 46.95C155.923 48.49 156.323 50.35 155.903 52.53C155.863 52.85 155.763 53.24 155.603 53.7H143.063C143.063 55.04 143.473 56.08 144.293 56.82C145.133 57.56 146.243 57.93 147.623 57.93C149.643 57.93 151.233 57.19 152.393 55.71L154.343 57.12C153.583 58.16 152.573 58.97 151.313 59.55C150.073 60.11 148.743 60.39 147.323 60.39C144.963 60.39 143.153 59.6 141.893 58.02C140.633 56.44 140.203 54.5 140.603 52.2C140.983 50.02 142.013 48.21 143.693 46.77C145.373 45.33 147.313 44.61 149.513 44.61ZM143.453 51.39H153.443C153.503 49.97 153.153 48.9 152.393 48.18C151.633 47.44 150.623 47.07 149.363 47.07C147.963 47.07 146.733 47.46 145.673 48.24C144.633 49 143.893 50.05 143.453 51.39ZM170.574 45H173.184L170.544 60H167.934L169.044 53.73H161.274L160.164 60H157.554L160.194 45H162.804L161.694 51.24H169.464L170.574 45ZM188.316 45L187.866 47.52H182.766L180.576 60H177.966L180.156 47.52H175.056L175.476 45H188.316ZM202.604 60.39C200.364 60.39 198.604 59.59 197.324 57.99C196.044 56.37 195.604 54.43 196.004 52.17C196.384 49.97 197.424 48.16 199.124 46.74C200.824 45.32 202.794 44.61 205.034 44.61C206.534 44.61 207.834 44.97 208.934 45.69C210.034 46.39 210.804 47.33 211.244 48.51L208.934 49.71C208.274 48.01 206.904 47.16 204.824 47.16C203.304 47.16 201.954 47.66 200.774 48.66C199.614 49.64 198.894 50.88 198.614 52.38C198.334 53.92 198.604 55.21 199.424 56.25C200.244 57.29 201.414 57.81 202.934 57.81C203.954 57.81 204.884 57.57 205.724 57.09C206.584 56.61 207.284 55.96 207.824 55.14L209.924 56.52C209.164 57.74 208.134 58.69 206.834 59.37C205.554 60.05 204.144 60.39 202.604 60.39ZM222.129 50.4C223.549 50.4 224.689 50.89 225.549 51.87C226.429 52.83 226.739 54.01 226.479 55.41C226.239 56.83 225.569 57.95 224.469 58.77C223.369 59.59 222.029 60 220.449 60H214.119L216.309 47.52H212.169L212.589 45H219.369L218.409 50.4H222.129ZM223.929 55.2C224.049 54.48 223.889 53.9 223.449 53.46C223.029 53.02 222.449 52.8 221.709 52.8H217.989L217.149 57.57H220.869C221.609 57.57 222.269 57.36 222.849 56.94C223.429 56.5 223.789 55.92 223.929 55.2ZM237.785 44.61C240.045 44.61 241.775 45.39 242.975 46.95C244.195 48.49 244.595 50.35 244.175 52.53C244.135 52.85 244.035 53.24 243.875 53.7H231.335C231.335 55.04 231.745 56.08 232.565 56.82C233.405 57.56 234.515 57.93 235.895 57.93C237.915 57.93 239.505 57.19 240.665 55.71L242.615 57.12C241.855 58.16 240.845 58.97 239.585 59.55C238.345 60.11 237.015 60.39 235.595 60.39C233.235 60.39 231.425 59.6 230.165 58.02C228.905 56.44 228.475 54.5 228.875 52.2C229.255 50.02 230.285 48.21 231.965 46.77C233.645 45.33 235.585 44.61 237.785 44.61ZM231.725 51.39H241.715C241.775 49.97 241.425 48.9 240.665 48.18C239.905 47.44 238.895 47.07 237.635 47.07C236.235 47.07 235.005 47.46 233.945 48.24C232.905 49 232.165 50.05 231.725 51.39ZM263.465 45L260.825 60H258.275L260.195 49.14L254.075 56.79H253.745L250.325 49.08L248.405 60H245.825L248.465 45H251.165L254.465 52.62L260.525 45H263.465ZM279.809 45L271.349 52.26L277.439 60H274.439L268.709 52.62L267.419 60H264.809L267.449 45H270.059L268.919 51.51L276.449 45H279.809ZM293.581 45H296.191L293.551 60H290.941L291.331 57.87C289.771 59.55 287.771 60.39 285.331 60.39C283.191 60.39 281.501 59.57 280.261 57.93C279.041 56.29 278.631 54.37 279.031 52.17C279.431 49.87 280.441 48.04 282.061 46.68C283.681 45.3 285.511 44.61 287.551 44.61C288.791 44.61 289.891 44.89 290.851 45.45C291.831 45.99 292.581 46.77 293.101 47.79L293.581 45ZM282.481 56.28C283.341 57.34 284.531 57.87 286.051 57.87C287.571 57.87 288.911 57.38 290.071 56.4C291.251 55.4 291.971 54.14 292.231 52.62C292.551 50.92 292.251 49.58 291.331 48.6C290.431 47.62 289.231 47.13 287.731 47.13C286.311 47.13 285.011 47.6 283.831 48.54C282.651 49.46 281.921 50.74 281.641 52.38C281.361 53.92 281.641 55.22 282.481 56.28Z" fill="white"/>
<defs>
<linearGradient id="paint0_linear_206_44" x1="0" y1="49.5" x2="371" y2="49.5" gradientUnits="userSpaceOnUse">
<stop stop-color="#B8CBB8"/>
<stop stop-color="#B8CBB8"/>
<stop stop-color="#B465DA"/>
<stop offset="0.33" stop-color="#CF6CC9"/>
<stop offset="0.66" stop-color="#EE609C"/>
<stop offset="1" stop-color="#EE609C"/>
</linearGradient>
</defs>
</svg>
