<svg width="97" height="97" viewBox="0 0 97 97" fill="none" xmlns="http://www.w3.org/2000/svg">
<path d="M49 31C37.972 31 29 39.972 29 51C29 62.028 37.972 71 49 71C60.028 71 69 62.028 69 51C69 39.972 60.028 31 49 31ZM49 67C40.178 67 33 59.822 33 51C33 42.178 40.178 35 49 35C57.822 35 65 42.178 65 51C65 59.822 57.822 67 49 67Z" fill="white"/>
<path d="M42 51C43.6569 51 45 49.6569 45 48C45 46.3431 43.6569 45 42 45C40.3431 45 39 46.3431 39 48C39 49.6569 40.3431 51 42 51Z" fill="white"/>
<path d="M55.986 50.972C57.6351 50.972 58.972 49.6351 58.972 47.986C58.972 46.3369 57.6351 45 55.986 45C54.3369 45 53 46.3369 53 47.986C53 49.6351 54.3369 50.972 55.986 50.972Z" fill="white"/>
<path d="M49 63C57 63 59 55 59 55H39C39 55 41 63 49 63Z" fill="white"/>
</svg>
