<svg width="371" height="99" viewBox="0 0 371 99" fill="none" xmlns="http://www.w3.org/2000/svg">
<rect width="371" height="99" rx="49.5" fill="url(#paint0_linear_206_102)"/>
<path d="M92.6268 39H95.4768L86.2068 55.02C85.1068 56.9 83.9168 58.23 82.6368 59.01C81.3568 59.77 79.8468 60.1 78.1068 60L78.5568 57.48C79.6968 57.56 80.6568 57.37 81.4368 56.91C82.2168 56.45 82.9368 55.66 83.5968 54.54L83.9268 53.97L79.2168 39H81.8868L85.6368 51.03L92.6268 39ZM108.762 45L106.122 60H103.512L105.702 47.49H97.9317L95.7417 60H93.1317L95.7717 45H108.762ZM125.185 45H127.795L125.155 60H122.545L122.935 57.87C121.375 59.55 119.375 60.39 116.935 60.39C114.795 60.39 113.105 59.57 111.865 57.93C110.645 56.29 110.235 54.37 110.635 52.17C111.035 49.87 112.045 48.04 113.665 46.68C115.285 45.3 117.115 44.61 119.155 44.61C120.395 44.61 121.495 44.89 122.455 45.45C123.435 45.99 124.185 46.77 124.705 47.79L125.185 45ZM114.085 56.28C114.945 57.34 116.135 57.87 117.655 57.87C119.175 57.87 120.515 57.38 121.675 56.4C122.855 55.4 123.575 54.14 123.835 52.62C124.155 50.92 123.855 49.58 122.935 48.6C122.035 47.62 120.835 47.13 119.335 47.13C117.915 47.13 116.615 47.6 115.435 48.54C114.255 49.46 113.525 50.74 113.245 52.38C112.965 53.92 113.245 55.22 114.085 56.28ZM144.108 45L135.648 52.26L141.738 60H138.738L133.008 52.62L131.718 60H129.108L131.748 45H134.358L133.218 51.51L140.748 45H144.108ZM150.02 60.39C147.8 60.39 146.02 59.62 144.68 58.08C143.34 56.54 142.88 54.59 143.3 52.23C143.72 49.91 144.82 48.06 146.6 46.68C148.38 45.3 150.36 44.61 152.54 44.61C154.68 44.61 156.4 45.38 157.7 46.92C159 48.46 159.45 50.39 159.05 52.71C158.65 55.07 157.58 56.94 155.84 58.32C154.1 59.7 152.16 60.39 150.02 60.39ZM150.23 57.84C151.69 57.84 153.02 57.36 154.22 56.4C155.44 55.44 156.19 54.12 156.47 52.44C156.75 50.82 156.45 49.54 155.57 48.6C154.71 47.64 153.56 47.16 152.12 47.16C150.7 47.18 149.39 47.66 148.19 48.6C146.99 49.54 146.23 50.84 145.91 52.5C145.63 54.18 145.92 55.5 146.78 56.46C147.66 57.4 148.81 57.86 150.23 57.84ZM174.366 49.29C174.106 50.73 173.376 51.76 172.176 52.38C172.856 52.72 173.346 53.21 173.646 53.85C173.946 54.49 174.026 55.2 173.886 55.98C173.666 57.2 173.086 58.18 172.146 58.92C171.226 59.64 169.966 60 168.366 60H160.866L163.506 45H170.406C171.786 45 172.846 45.42 173.586 46.26C174.326 47.08 174.586 48.09 174.366 49.29ZM169.866 47.34H165.636L164.946 51.27H169.056C170.676 51.27 171.596 50.6 171.816 49.26C171.936 48.66 171.826 48.19 171.486 47.85C171.146 47.51 170.606 47.34 169.866 47.34ZM171.366 55.56C171.466 54.94 171.336 54.46 170.976 54.12C170.636 53.76 170.086 53.58 169.326 53.58H164.556L163.836 57.63H168.636C169.356 57.63 169.956 57.45 170.436 57.09C170.936 56.71 171.246 56.2 171.366 55.56ZM190.954 45L182.494 52.26L188.584 60H185.584L179.854 52.62L178.564 60H175.954L178.594 45H181.204L180.064 51.51L187.594 45H190.954ZM204.726 45H207.336L204.696 60H202.086L202.476 57.87C200.916 59.55 198.916 60.39 196.476 60.39C194.336 60.39 192.646 59.57 191.406 57.93C190.186 56.29 189.776 54.37 190.176 52.17C190.576 49.87 191.586 48.04 193.206 46.68C194.826 45.3 196.656 44.61 198.696 44.61C199.936 44.61 201.036 44.89 201.996 45.45C202.976 45.99 203.726 46.77 204.246 47.79L204.726 45ZM193.626 56.28C194.486 57.34 195.676 57.87 197.196 57.87C198.716 57.87 200.056 57.38 201.216 56.4C202.396 55.4 203.116 54.14 203.376 52.62C203.696 50.92 203.396 49.58 202.476 48.6C201.576 47.62 200.376 47.13 198.876 47.13C197.456 47.13 196.156 47.6 194.976 48.54C193.796 49.46 193.066 50.74 192.786 52.38C192.506 53.92 192.786 55.22 193.626 56.28ZM223.079 60.39C220.919 60.39 219.199 59.65 217.919 58.17C216.639 56.69 216.199 54.82 216.599 52.56C217.039 49.98 217.749 48 218.729 46.62C219.709 45.22 221.449 43.96 223.949 42.84C224.429 42.62 225.049 42.36 225.809 42.06C226.589 41.74 227.159 41.5 227.519 41.34C227.899 41.18 228.319 40.96 228.779 40.68C229.259 40.4 229.629 40.09 229.889 39.75C230.169 39.39 230.409 38.98 230.609 38.52L232.589 39.72C232.469 40.04 232.329 40.34 232.169 40.62C232.029 40.88 231.839 41.14 231.599 41.4C231.379 41.64 231.179 41.85 230.999 42.03C230.819 42.21 230.549 42.4 230.189 42.6C229.849 42.8 229.579 42.96 229.379 43.08C229.199 43.2 228.879 43.36 228.419 43.56C227.979 43.74 227.669 43.87 227.489 43.95C227.309 44.01 226.949 44.15 226.409 44.37C225.889 44.57 225.549 44.7 225.389 44.76C223.989 45.3 222.919 45.86 222.179 46.44C221.439 47 220.859 47.71 220.439 48.57C221.919 47.17 223.749 46.47 225.929 46.47C227.709 46.47 229.169 47.15 230.309 48.51C231.469 49.87 231.879 51.55 231.539 53.55C231.179 55.59 230.229 57.24 228.689 58.5C227.149 59.76 225.279 60.39 223.079 60.39ZM220.019 56.52C220.819 57.42 221.919 57.87 223.319 57.87C224.719 57.87 225.949 57.45 227.009 56.61C228.069 55.75 228.719 54.66 228.959 53.34C229.179 52.02 228.919 50.93 228.179 50.07C227.439 49.21 226.389 48.78 225.029 48.78C223.709 48.78 222.469 49.17 221.309 49.95C220.149 50.73 219.449 51.78 219.209 53.1C218.969 54.46 219.239 55.6 220.019 56.52ZM247.823 45L245.183 60H242.573L244.763 47.52H238.853L237.803 53.64C237.343 56.22 236.553 57.97 235.433 58.89C234.313 59.79 232.833 60.16 230.993 60L231.413 57.54C232.433 57.66 233.243 57.43 233.843 56.85C234.463 56.27 234.913 55.18 235.193 53.58L236.693 45H247.823ZM256.368 60.39C254.148 60.39 252.368 59.62 251.028 58.08C249.688 56.54 249.228 54.59 249.648 52.23C250.068 49.91 251.168 48.06 252.948 46.68C254.728 45.3 256.708 44.61 258.888 44.61C261.028 44.61 262.748 45.38 264.048 46.92C265.348 48.46 265.798 50.39 265.398 52.71C264.998 55.07 263.928 56.94 262.188 58.32C260.448 59.7 258.508 60.39 256.368 60.39ZM256.578 57.84C258.038 57.84 259.368 57.36 260.568 56.4C261.788 55.44 262.538 54.12 262.818 52.44C263.098 50.82 262.798 49.54 261.918 48.6C261.058 47.64 259.908 47.16 258.468 47.16C257.048 47.18 255.738 47.66 254.538 48.6C253.338 49.54 252.578 50.84 252.258 52.5C251.978 54.18 252.268 55.5 253.128 56.46C254.008 57.4 255.158 57.86 256.578 57.84ZM279.694 45L279.244 47.52H272.014L269.824 60H267.214L269.854 45H279.694ZM293.729 45H296.339L293.699 60H291.089L291.479 57.87C289.919 59.55 287.919 60.39 285.479 60.39C283.339 60.39 281.649 59.57 280.409 57.93C279.189 56.29 278.779 54.37 279.179 52.17C279.579 49.87 280.589 48.04 282.209 46.68C283.829 45.3 285.659 44.61 287.699 44.61C288.939 44.61 290.039 44.89 290.999 45.45C291.979 45.99 292.729 46.77 293.249 47.79L293.729 45ZM282.629 56.28C283.489 57.34 284.679 57.87 286.199 57.87C287.719 57.87 289.059 57.38 290.219 56.4C291.399 55.4 292.119 54.14 292.379 52.62C292.699 50.92 292.399 49.58 291.479 48.6C290.579 47.62 289.379 47.13 287.879 47.13C286.459 47.13 285.159 47.6 283.979 48.54C282.799 49.46 282.069 50.74 281.789 52.38C281.509 53.92 281.789 55.22 282.629 56.28Z" fill="white"/>
<defs>
<linearGradient id="paint0_linear_206_102" x1="0" y1="49.5" x2="371" y2="49.5" gradientUnits="userSpaceOnUse">
<stop stop-color="#B8CBB8"/>
<stop stop-color="#B8CBB8"/>
<stop stop-color="#B465DA"/>
<stop offset="0.33" stop-color="#CF6CC9"/>
<stop offset="0.66" stop-color="#EE609C"/>
<stop offset="1" stop-color="#EE609C"/>
</linearGradient>
</defs>
</svg>
