<svg width="371" height="99" viewBox="0 0 371 99" fill="none" xmlns="http://www.w3.org/2000/svg">
<rect width="371" height="99" rx="49.5" fill="url(#paint0_linear_206_117)"/>
<path d="M74.2872 44.88C73.9872 46.76 72.9872 48.19 71.2872 49.17C72.1272 49.67 72.7472 50.36 73.1472 51.24C73.5472 52.1 73.6672 53.09 73.5072 54.21C73.2672 55.85 72.4872 57.23 71.1672 58.35C69.8672 59.45 68.2572 60 66.3372 60H57.3372L61.0272 39H69.0072C70.7272 39 72.0972 39.57 73.1172 40.71C74.1572 41.85 74.5472 43.24 74.2872 44.88ZM71.5272 44.82C71.6872 43.94 71.5072 43.19 70.9872 42.57C70.4872 41.93 69.7672 41.61 68.8272 41.61H63.3672L62.2272 48.03H67.8072C68.6872 48.03 69.4872 47.72 70.2072 47.1C70.9272 46.48 71.3672 45.72 71.5272 44.82ZM69.3672 56.4C70.1472 55.74 70.6172 54.93 70.7772 53.97C70.9372 53.01 70.7472 52.21 70.2072 51.57C69.6872 50.91 68.9572 50.58 68.0172 50.58H61.7772L60.5772 57.39H66.6972C67.6972 57.39 68.5872 57.06 69.3672 56.4ZM85.0914 44.61C87.3514 44.61 89.0814 45.39 90.2814 46.95C91.5014 48.49 91.9014 50.35 91.4814 52.53C91.4414 52.85 91.3414 53.24 91.1814 53.7H78.6414C78.6414 55.04 79.0514 56.08 79.8714 56.82C80.7114 57.56 81.8214 57.93 83.2014 57.93C85.2214 57.93 86.8114 57.19 87.9714 55.71L89.9214 57.12C89.1614 58.16 88.1514 58.97 86.8914 59.55C85.6514 60.11 84.3214 60.39 82.9014 60.39C80.5414 60.39 78.7314 59.6 77.4714 58.02C76.2114 56.44 75.7814 54.5 76.1814 52.2C76.5614 50.02 77.5914 48.21 79.2714 46.77C80.9514 45.33 82.8914 44.61 85.0914 44.61ZM79.0314 51.39H89.0214C89.0814 49.97 88.7314 48.9 87.9714 48.18C87.2114 47.44 86.2014 47.07 84.9414 47.07C83.5414 47.07 82.3114 47.46 81.2514 48.24C80.2114 49 79.4714 50.05 79.0314 51.39ZM108.115 45L105.925 57.51H107.995L106.825 64.02H104.245L104.965 60H93.715L92.995 64.02H90.385L91.555 57.51H93.415C94.615 56.19 95.425 54.34 95.845 51.96L97.045 45H108.115ZM96.475 57.51H103.345L105.115 47.43H99.205L98.425 51.96C98.005 54.24 97.355 56.09 96.475 57.51ZM119.222 44.61C121.482 44.61 123.212 45.39 124.412 46.95C125.632 48.49 126.032 50.35 125.612 52.53C125.572 52.85 125.472 53.24 125.312 53.7H112.772C112.772 55.04 113.182 56.08 114.002 56.82C114.842 57.56 115.952 57.93 117.332 57.93C119.352 57.93 120.942 57.19 122.102 55.71L124.052 57.12C123.292 58.16 122.282 58.97 121.022 59.55C119.782 60.11 118.452 60.39 117.032 60.39C114.672 60.39 112.862 59.6 111.602 58.02C110.342 56.44 109.912 54.5 110.312 52.2C110.692 50.02 111.722 48.21 113.402 46.77C115.082 45.33 117.022 44.61 119.222 44.61ZM113.162 51.39H123.152C123.212 49.97 122.862 48.9 122.102 48.18C121.342 47.44 120.332 47.07 119.072 47.07C117.672 47.07 116.442 47.46 115.382 48.24C114.342 49 113.602 50.05 113.162 51.39ZM140.283 45H142.893L140.253 60H137.643L138.753 53.73H130.983L129.873 60H127.263L129.903 45H132.513L131.403 51.24H139.173L140.283 45ZM157.755 45H159.855L157.215 60H154.635L156.435 49.62L146.325 60H144.225L146.865 45H149.445L147.615 55.38L157.755 45ZM170.638 44.61C172.898 44.61 174.628 45.39 175.828 46.95C177.048 48.49 177.448 50.35 177.028 52.53C176.988 52.85 176.888 53.24 176.728 53.7H164.188C164.188 55.04 164.598 56.08 165.418 56.82C166.258 57.56 167.368 57.93 168.748 57.93C170.768 57.93 172.358 57.19 173.518 55.71L175.468 57.12C174.708 58.16 173.698 58.97 172.438 59.55C171.198 60.11 169.868 60.39 168.448 60.39C166.088 60.39 164.278 59.6 163.018 58.02C161.758 56.44 161.328 54.5 161.728 52.2C162.108 50.02 163.138 48.21 164.818 46.77C166.498 45.33 168.438 44.61 170.638 44.61ZM164.578 51.39H174.568C174.628 49.97 174.278 48.9 173.518 48.18C172.758 47.44 171.748 47.07 170.488 47.07C169.088 47.07 167.858 47.46 166.798 48.24C165.758 49 165.018 50.05 164.578 51.39ZM201.298 45H203.908L201.268 60H198.658L199.048 57.87C197.488 59.55 195.488 60.39 193.048 60.39C190.908 60.39 189.218 59.57 187.978 57.93C186.758 56.29 186.348 54.37 186.748 52.17C187.148 49.87 188.158 48.04 189.778 46.68C191.398 45.3 193.228 44.61 195.268 44.61C196.508 44.61 197.608 44.89 198.568 45.45C199.548 45.99 200.298 46.77 200.818 47.79L201.298 45ZM190.198 56.28C191.058 57.34 192.248 57.87 193.768 57.87C195.288 57.87 196.628 57.38 197.788 56.4C198.968 55.4 199.688 54.14 199.948 52.62C200.268 50.92 199.968 49.58 199.048 48.6C198.148 47.62 196.948 47.13 195.448 47.13C194.028 47.13 192.728 47.6 191.548 48.54C190.368 49.46 189.638 50.74 189.358 52.38C189.078 53.92 189.358 55.22 190.198 56.28ZM220.222 45L211.762 52.26L217.852 60H214.852L209.122 52.62L207.832 60H205.222L207.862 45H210.472L209.332 51.51L216.862 45H220.222ZM235.28 45L226.82 52.26L232.91 60H229.91L224.18 52.62L222.89 60H220.28L222.92 45H225.53L224.39 51.51L231.92 45H235.28ZM249.052 45H251.662L249.022 60H246.412L246.802 57.87C245.242 59.55 243.242 60.39 240.802 60.39C238.662 60.39 236.972 59.57 235.732 57.93C234.512 56.29 234.102 54.37 234.502 52.17C234.902 49.87 235.912 48.04 237.532 46.68C239.152 45.3 240.982 44.61 243.022 44.61C244.262 44.61 245.362 44.89 246.322 45.45C247.302 45.99 248.052 46.77 248.572 47.79L249.052 45ZM237.952 56.28C238.812 57.34 240.002 57.87 241.522 57.87C243.042 57.87 244.382 57.38 245.542 56.4C246.722 55.4 247.442 54.14 247.702 52.62C248.022 50.92 247.722 49.58 246.802 48.6C245.902 47.62 244.702 47.13 243.202 47.13C241.782 47.13 240.482 47.6 239.302 48.54C238.122 49.46 237.392 50.74 237.112 52.38C236.832 53.92 237.112 55.22 237.952 56.28ZM265.965 45H268.875L259.965 60.93C257.965 64.53 255.445 66.22 252.405 66L252.825 63.57C253.765 63.65 254.575 63.44 255.255 62.94C255.955 62.44 256.625 61.65 257.265 60.57L257.715 59.85L253.875 45H256.515L259.485 56.85L265.965 45ZM281.435 45H284.045L281.405 60H278.795L279.905 53.73H272.135L271.025 60H268.415L271.055 45H273.665L272.555 51.24H280.325L281.435 45ZM299.178 45L298.728 47.52H293.628L291.438 60H288.828L291.018 47.52H285.918L286.338 45H299.178ZM313.329 45H315.939L313.299 60H310.689L311.079 57.87C309.519 59.55 307.519 60.39 305.079 60.39C302.939 60.39 301.249 59.57 300.009 57.93C298.789 56.29 298.379 54.37 298.779 52.17C299.179 49.87 300.189 48.04 301.809 46.68C303.429 45.3 305.259 44.61 307.299 44.61C308.539 44.61 309.639 44.89 310.599 45.45C311.579 45.99 312.329 46.77 312.849 47.79L313.329 45ZM302.229 56.28C303.089 57.34 304.279 57.87 305.799 57.87C307.319 57.87 308.659 57.38 309.819 56.4C310.999 55.4 311.719 54.14 311.979 52.62C312.299 50.92 311.999 49.58 311.079 48.6C310.179 47.62 308.979 47.13 307.479 47.13C306.059 47.13 304.759 47.6 303.579 48.54C302.399 49.46 301.669 50.74 301.389 52.38C301.109 53.92 301.389 55.22 302.229 56.28Z" fill="white"/>
<defs>
<linearGradient id="paint0_linear_206_117" x1="0" y1="49.5" x2="371" y2="49.5" gradientUnits="userSpaceOnUse">
<stop stop-color="#B8CBB8"/>
<stop stop-color="#B8CBB8"/>
<stop stop-color="#B465DA"/>
<stop offset="0.33" stop-color="#CF6CC9"/>
<stop offset="0.66" stop-color="#EE609C"/>
<stop offset="1" stop-color="#EE609C"/>
</linearGradient>
</defs>
</svg>
