<svg width="371" height="99" viewBox="0 0 371 99" fill="none" xmlns="http://www.w3.org/2000/svg">
<rect width="371" height="99" rx="49.5" fill="url(#paint0_linear_206_89)"/>
<path d="M104.959 44.88C104.659 46.76 103.659 48.19 101.959 49.17C102.799 49.67 103.419 50.36 103.819 51.24C104.219 52.1 104.339 53.09 104.179 54.21C103.939 55.85 103.159 57.23 101.839 58.35C100.539 59.45 98.9291 60 97.0091 60H88.0091L91.6991 39H99.6791C101.399 39 102.769 39.57 103.789 40.71C104.829 41.85 105.219 43.24 104.959 44.88ZM102.199 44.82C102.359 43.94 102.179 43.19 101.659 42.57C101.159 41.93 100.439 41.61 99.4991 41.61H94.0391L92.8991 48.03H98.4791C99.3591 48.03 100.159 47.72 100.879 47.1C101.599 46.48 102.039 45.72 102.199 44.82ZM100.039 56.4C100.819 55.74 101.289 54.93 101.449 53.97C101.609 53.01 101.419 52.21 100.879 51.57C100.359 50.91 99.6291 50.58 98.6891 50.58H92.4491L91.2491 57.39H97.3691C98.3691 57.39 99.2591 57.06 100.039 56.4ZM119.726 45H121.826L119.186 60H116.606L118.406 49.62L108.296 60H106.196L108.836 45H111.416L109.586 55.38L119.726 45ZM134.891 49.26C134.611 50.78 133.831 51.84 132.551 52.44C133.251 52.82 133.761 53.34 134.081 54C134.401 54.66 134.491 55.39 134.351 56.19C134.131 57.43 133.471 58.44 132.371 59.22C131.291 60 129.831 60.39 127.991 60.39C126.411 60.39 125.161 60.06 124.241 59.4C123.321 58.74 122.721 57.87 122.441 56.79L124.721 55.59C125.021 57.17 126.211 57.96 128.291 57.96C129.291 57.96 130.101 57.75 130.721 57.33C131.361 56.89 131.731 56.33 131.831 55.65C131.951 55.05 131.821 54.56 131.441 54.18C131.061 53.8 130.481 53.61 129.701 53.61H127.511L127.961 51.24H129.551C130.311 51.24 130.931 51.06 131.411 50.7C131.911 50.32 132.221 49.81 132.341 49.17C132.441 48.53 132.271 48.01 131.831 47.61C131.411 47.21 130.751 47.01 129.851 47.01C128.171 47.01 126.921 47.73 126.101 49.17L124.091 47.88C125.551 45.7 127.551 44.61 130.091 44.61C131.771 44.61 133.041 45.08 133.901 46.02C134.761 46.96 135.091 48.04 134.891 49.26ZM148.922 45H151.832L142.922 60.93C140.922 64.53 138.402 66.22 135.362 66L135.782 63.57C136.722 63.65 137.532 63.44 138.212 62.94C138.912 62.44 139.582 61.65 140.222 60.57L140.672 59.85L136.832 45H139.472L142.442 56.85L148.922 45ZM165.876 45H168.486L165.846 60H163.236L163.626 57.87C162.066 59.55 160.066 60.39 157.626 60.39C155.486 60.39 153.796 59.57 152.556 57.93C151.336 56.29 150.926 54.37 151.326 52.17C151.726 49.87 152.736 48.04 154.356 46.68C155.976 45.3 157.806 44.61 159.846 44.61C161.086 44.61 162.186 44.89 163.146 45.45C164.126 45.99 164.876 46.77 165.396 47.79L165.876 45ZM154.776 56.28C155.636 57.34 156.826 57.87 158.346 57.87C159.866 57.87 161.206 57.38 162.366 56.4C163.546 55.4 164.266 54.14 164.526 52.62C164.846 50.92 164.546 49.58 163.626 48.6C162.726 47.62 161.526 47.13 160.026 47.13C158.606 47.13 157.306 47.6 156.126 48.54C154.946 49.46 154.216 50.74 153.936 52.38C153.656 53.92 153.936 55.22 154.776 56.28ZM184.95 45L182.31 60H179.7L181.89 47.52H175.98L174.93 53.64C174.47 56.22 173.68 57.97 172.56 58.89C171.44 59.79 169.96 60.16 168.12 60L168.54 57.54C169.56 57.66 170.37 57.43 170.97 56.85C171.59 56.27 172.04 55.18 172.32 53.58L173.82 45H184.95ZM199.794 45H201.894L199.254 60H196.674L198.474 49.62L188.364 60H186.264L188.904 45H191.484L189.654 55.38L199.794 45ZM214.959 49.26C214.679 50.78 213.899 51.84 212.619 52.44C213.319 52.82 213.829 53.34 214.149 54C214.469 54.66 214.559 55.39 214.419 56.19C214.199 57.43 213.539 58.44 212.439 59.22C211.359 60 209.899 60.39 208.059 60.39C206.479 60.39 205.229 60.06 204.309 59.4C203.389 58.74 202.789 57.87 202.509 56.79L204.789 55.59C205.089 57.17 206.279 57.96 208.359 57.96C209.359 57.96 210.169 57.75 210.789 57.33C211.429 56.89 211.799 56.33 211.899 55.65C212.019 55.05 211.889 54.56 211.509 54.18C211.129 53.8 210.549 53.61 209.769 53.61H207.579L208.029 51.24H209.619C210.379 51.24 210.999 51.06 211.479 50.7C211.979 50.32 212.289 49.81 212.409 49.17C212.509 48.53 212.339 48.01 211.899 47.61C211.479 47.21 210.819 47.01 209.919 47.01C208.239 47.01 206.989 47.73 206.169 49.17L204.159 47.88C205.619 45.7 207.619 44.61 210.159 44.61C211.839 44.61 213.109 45.08 213.969 46.02C214.829 46.96 215.159 48.04 214.959 49.26ZM231.677 45H234.287L231.647 60H229.037L229.427 57.87C227.867 59.55 225.867 60.39 223.427 60.39C221.287 60.39 219.597 59.57 218.357 57.93C217.137 56.29 216.727 54.37 217.127 52.17C217.527 49.87 218.537 48.04 220.157 46.68C221.777 45.3 223.607 44.61 225.647 44.61C226.887 44.61 227.987 44.89 228.947 45.45C229.927 45.99 230.677 46.77 231.197 47.79L231.677 45ZM220.577 56.28C221.437 57.34 222.627 57.87 224.147 57.87C225.667 57.87 227.007 57.38 228.167 56.4C229.347 55.4 230.067 54.14 230.327 52.62C230.647 50.92 230.347 49.58 229.427 48.6C228.527 47.62 227.327 47.13 225.827 47.13C224.407 47.13 223.107 47.6 221.927 48.54C220.747 49.46 220.017 50.74 219.737 52.38C219.457 53.92 219.737 55.22 220.577 56.28ZM248.65 57.51H251.08L249.94 64.02H247.36L248.08 60H235.6L238.24 45H240.85L238.66 57.51H246.04L248.23 45H250.84L248.65 57.51ZM266.972 45H269.072L266.432 60H263.852L265.652 49.62L255.542 60H253.442L256.082 45H258.662L256.832 55.38L266.972 45ZM284.265 45L281.625 60H279.045L280.005 54.6H277.725L272.625 60H269.475L274.845 54.39C273.825 54.07 273.025 53.47 272.445 52.59C271.865 51.69 271.675 50.7 271.875 49.62C272.115 48.26 272.785 47.15 273.885 46.29C275.005 45.43 276.335 45 277.875 45H284.265ZM276.705 52.26H280.395L281.265 47.43H277.545C276.785 47.43 276.105 47.66 275.505 48.12C274.925 48.56 274.575 49.14 274.455 49.86C274.315 50.58 274.465 51.16 274.905 51.6C275.345 52.04 275.945 52.26 276.705 52.26Z" fill="white"/>
<defs>
<linearGradient id="paint0_linear_206_89" x1="0" y1="49.5" x2="371" y2="49.5" gradientUnits="userSpaceOnUse">
<stop stop-color="#B8CBB8"/>
<stop stop-color="#B8CBB8"/>
<stop stop-color="#B465DA"/>
<stop offset="0.33" stop-color="#CF6CC9"/>
<stop offset="0.66" stop-color="#EE609C"/>
<stop offset="1" stop-color="#EE609C"/>
</linearGradient>
</defs>
</svg>
