<svg width="85" height="84" viewBox="0 0 85 84" fill="none" xmlns="http://www.w3.org/2000/svg">
<g filter="url(#filter0_dd_201_6)">
<path d="M42.375 29.4219C39.8935 29.4219 37.4677 30.1376 35.4043 31.4785C33.341 32.8194 31.7328 34.7252 30.7832 36.9551C29.8336 39.1849 29.5851 41.6385 30.0692 44.0057C30.5533 46.3729 31.7483 48.5473 33.503 50.2539C35.2577 51.9606 37.4934 53.1228 39.9272 53.5936C42.3611 54.0645 44.8838 53.8228 47.1765 52.8992C49.4691 51.9756 51.4287 50.4115 52.8073 48.4047C54.186 46.3979 54.9219 44.0385 54.9219 41.625C54.9219 38.3885 53.6 35.2846 51.247 32.9961C48.894 30.7076 45.7026 29.4219 42.375 29.4219ZM42.375 51.6094C40.3447 51.6094 38.3599 51.0238 36.6717 49.9267C34.9836 48.8296 33.6678 47.2703 32.8908 45.4459C32.1138 43.6214 31.9105 41.6139 32.3066 39.6771C32.7027 37.7404 33.6804 35.9613 35.1161 34.565C36.5518 33.1686 38.3809 32.2177 40.3723 31.8325C42.3636 31.4472 44.4277 31.6449 46.3035 32.4006C48.1793 33.1563 49.7826 34.4361 50.9106 36.078C52.0386 37.7199 52.6406 39.6503 52.6406 41.625C52.6406 44.273 51.5591 46.8126 49.6339 48.685C47.7087 50.5575 45.0976 51.6094 42.375 51.6094ZM54.9219 15H29.8281C25.8955 15 22.1239 16.5194 19.3431 19.2241C16.5622 21.9287 15 25.597 15 29.4219V53.8281C15 55.722 15.3835 57.5974 16.1287 59.3471C16.8739 61.0969 17.9661 62.6867 19.3431 64.0259C22.1239 66.7306 25.8955 68.25 29.8281 68.25H54.9219C56.8691 68.25 58.7973 67.877 60.5964 67.1522C62.3954 66.4274 64.03 65.3651 65.4069 64.0259C66.7839 62.6867 67.8761 61.0969 68.6213 59.3471C69.3665 57.5974 69.75 55.722 69.75 53.8281V29.4219C69.75 27.528 69.3665 25.6526 68.6213 23.9029C67.8761 22.1531 66.7839 20.5633 65.4069 19.2241C64.03 17.8849 62.3954 16.8226 60.5964 16.0978C58.7973 15.373 56.8691 15 54.9219 15ZM67.4688 53.8281C67.4688 57.0646 66.1469 60.1685 63.7939 62.457C61.4409 64.7456 58.2495 66.0312 54.9219 66.0312H29.8281C26.5005 66.0312 23.3091 64.7456 20.9561 62.457C18.6031 60.1685 17.2812 57.0646 17.2812 53.8281V29.4219C17.2812 26.1854 18.6031 23.0815 20.9561 20.793C23.3091 18.5044 26.5005 17.2188 29.8281 17.2188H54.9219C58.2495 17.2188 61.4409 18.5044 63.7939 20.793C66.1469 23.0815 67.4688 26.1854 67.4688 29.4219V53.8281ZM59.4844 27.2031C59.4844 27.642 59.3506 28.0709 59.0999 28.4358C58.8493 28.8007 58.493 29.0851 58.0761 29.253C57.6593 29.4209 57.2006 29.4649 56.7581 29.3792C56.3156 29.2936 55.9091 29.0823 55.59 28.772C55.271 28.4617 55.0537 28.0664 54.9657 27.636C54.8777 27.2056 54.9229 26.7595 55.0955 26.354C55.2682 25.9486 55.5606 25.6021 55.9357 25.3583C56.3109 25.1145 56.7519 24.9844 57.2031 24.9844C57.8082 24.9844 58.3884 25.2181 58.8162 25.6342C59.244 26.0503 59.4844 26.6147 59.4844 27.2031Z" fill="#D74A8F"/>
<path d="M35.6768 31.8977C37.6583 30.61 39.9893 29.9219 42.375 29.9219C45.5744 29.9219 48.6401 31.1582 50.8984 33.3545C53.1561 35.5504 54.4219 38.5257 54.4219 41.625C54.4219 43.9365 53.7172 46.1973 52.3952 48.1216C51.0731 50.046 49.1925 51.548 46.9896 52.4354C44.7866 53.3229 42.3618 53.5554 40.0222 53.1027C37.6827 52.6501 35.5356 51.5333 33.8516 49.8955C32.1678 48.2578 31.0228 46.173 30.5591 43.9055C30.0954 41.6381 30.3332 39.2877 31.2432 37.151C32.1533 35.0141 33.6954 33.1853 35.6768 31.8977ZM36.3993 50.346C38.1693 51.4962 40.2488 52.1094 42.375 52.1094C45.2258 52.1094 47.9626 51.0081 49.9825 49.0434C52.0029 47.0784 53.1406 44.4102 53.1406 41.625C53.1406 39.5482 52.5074 37.5193 51.3227 35.7949C50.1381 34.0706 48.4559 32.7287 46.4903 31.9369C44.5249 31.1451 42.3629 30.9381 40.2773 31.3416C38.1916 31.7451 36.2739 32.7414 34.7675 34.2066C33.2609 35.6719 32.2332 37.5405 31.8168 39.577C31.4003 41.6135 31.6142 43.7243 32.4308 45.6418C33.2473 47.5591 34.6291 49.1956 36.3993 50.346ZM29.8281 15.5H54.9219C56.8054 15.5 58.6701 15.8608 60.4095 16.5616C62.1489 17.2623 63.7284 18.289 65.0583 19.5825C66.3882 20.8759 67.4423 22.4107 68.1613 24.0988C68.8802 25.7868 69.25 27.5956 69.25 29.4219V53.8281C69.25 55.6544 68.8802 57.4632 68.1613 59.1512C67.4423 60.8393 66.3882 62.3741 65.0583 63.6675C63.7284 64.961 62.1489 65.9877 60.4095 66.6884C58.6701 67.3892 56.8054 67.75 54.9219 67.75H29.8281C26.0237 67.75 22.3777 66.28 19.6917 63.6675C18.3618 62.3741 17.3077 60.8393 16.5887 59.1512C15.8698 57.4632 15.5 55.6544 15.5 53.8281V29.4219C15.5 25.7341 17.0061 22.1945 19.6917 19.5825C22.3777 16.97 26.0237 15.5 29.8281 15.5ZM64.1425 62.8155C66.5907 60.4343 67.9688 57.2018 67.9688 53.8281V29.4219C67.9688 26.0482 66.5907 22.8157 64.1425 20.4345C61.6947 18.0538 58.3777 16.7188 54.9219 16.7188H29.8281C26.3723 16.7188 23.0553 18.0538 20.6075 20.4345C18.1593 22.8157 16.7812 26.0482 16.7812 29.4219V53.8281C16.7812 57.2018 18.1593 60.4343 20.6075 62.8155C23.0553 65.1962 26.3723 66.5312 29.8281 66.5312H54.9219C58.3777 66.5312 61.6947 65.1962 64.1425 62.8155ZM58.9844 27.2031C58.9844 27.5399 58.8818 27.8703 58.6878 28.1527C58.4937 28.4352 58.2164 28.6574 57.8893 28.7892C57.5621 28.921 57.2013 28.9557 56.853 28.8883C56.5049 28.821 56.1869 28.655 55.9386 28.4136C55.6905 28.1723 55.5232 27.8665 55.4556 27.5358C55.388 27.2052 55.4225 26.8623 55.5555 26.55C55.6886 26.2374 55.915 25.9681 56.2082 25.7775C56.5015 25.5869 56.8478 25.4844 57.2031 25.4844C57.68 25.4844 58.1346 25.6687 58.4676 25.9927C58.8002 26.3161 58.9844 26.7518 58.9844 27.2031Z" stroke="#D74A8F"/>
</g>
<defs>
<filter id="filter0_dd_201_6" x="0" y="0" width="84.75" height="83.25" filterUnits="userSpaceOnUse" color-interpolation-filters="sRGB">
<feFlood flood-opacity="0" result="BackgroundImageFix"/>
<feColorMatrix in="SourceAlpha" type="matrix" values="0 0 0 0 0 0 0 0 0 0 0 0 0 0 0 0 0 0 127 0" result="hardAlpha"/>
<feOffset/>
<feGaussianBlur stdDeviation="2.5"/>
<feComposite in2="hardAlpha" operator="out"/>
<feColorMatrix type="matrix" values="0 0 0 0 0.85098 0 0 0 0 0.478431 0 0 0 0 0.913725 0 0 0 0.6 0"/>
<feBlend mode="normal" in2="BackgroundImageFix" result="effect1_dropShadow_201_6"/>
<feColorMatrix in="SourceAlpha" type="matrix" values="0 0 0 0 0 0 0 0 0 0 0 0 0 0 0 0 0 0 127 0" result="hardAlpha"/>
<feOffset/>
<feGaussianBlur stdDeviation="7.5"/>
<feComposite in2="hardAlpha" operator="out"/>
<feColorMatrix type="matrix" values="0 0 0 0 0.85098 0 0 0 0 0.478431 0 0 0 0 0.913725 0 0 0 0.6 0"/>
<feBlend mode="normal" in2="effect1_dropShadow_201_6" result="effect2_dropShadow_201_6"/>
<feBlend mode="normal" in="SourceGraphic" in2="effect2_dropShadow_201_6" result="shape"/>
</filter>
</defs>
</svg>
