<svg width="61" height="18" viewBox="0 0 61 18" fill="none" xmlns="http://www.w3.org/2000/svg">
<path d="M3.675 14.6V0.399999H0.925V17.025H13.025V14.6H3.675ZM19.2162 7.475L27.5662 0.399999H23.8162L17.3162 5.925C16.9662 6.2 16.6912 6.575 16.5412 7L16.3662 7.4L16.0412 7.25L16.3412 6.45C16.4912 6.125 16.5412 5.775 16.5412 5.425V0.399999H13.7912V17.025H16.5412V9.75L17.3662 9.05L24.6912 17.025H27.9662L19.2162 7.475ZM41.4838 12.525C41.4838 12.825 41.5338 13.125 41.6338 13.4L42.0088 14.525L41.6588 14.65L41.2838 13.55C41.1838 13.25 41.0338 12.975 40.8588 12.725L31.4338 0.399999H28.6838V17.025H31.4338V4.9C31.4338 4.6 31.3838 4.3 31.3088 4.025L30.9088 2.875L31.2588 2.75L31.6338 3.875C31.7338 4.175 31.8838 4.425 32.0588 4.675L41.4838 17.025H44.2588V0.399999H41.4838V12.525ZM57.9648 0.399999L53.1398 13.675C53.0398 13.975 52.9648 14.3 52.9648 14.625V15.275H52.6148V14.6C52.6148 14.3 52.5398 13.975 52.4398 13.675L47.6148 0.399999H45.0398L51.0648 17.025H54.4898L60.5398 0.399999H57.9648Z" fill="url(#paint0_linear_2_16)"/>
<defs>
<linearGradient id="paint0_linear_2_16" x1="0" y1="9.5" x2="61" y2="9.5" gradientUnits="userSpaceOnUse">
<stop stop-color="#F093FB"/>
<stop offset="1" stop-color="#F5576C"/>
</linearGradient>
</defs>
</svg>
